<?xml version="1.0" encoding="utf-8"?>
<!-- Generator: Adobe Illustrator 16.0.0, SVG Export Plug-In . SVG Version: 6.00 Build 0)  -->
<!DOCTYPE svg PUBLIC "-//W3C//DTD SVG 1.1//EN" "http://www.w3.org/Graphics/SVG/1.1/DTD/svg11.dtd">
<svg version="1.1" id="Layer_1" xmlns="http://www.w3.org/2000/svg" xmlns:xlink="http://www.w3.org/1999/xlink" x="0px" y="0px"
	 width="1255.553px" height="432px" viewBox="0 0 1255.553 432" enable-background="new 0 0 1255.553 432" xml:space="preserve">
<g>
	<g>
		<g>
			<path fill="#F7BF9F" d="M479.3,248.901c0,0-6.6,2.1,3,13.898c9.602,11.801,18.4,20.602,18.4,20.602l1.2-12
				C502,271.401,490.8,243.7,479.3,248.901z"/>
			<path fill="#F7BF9F" d="M502,271.401l12.4-9.9l4.398,3.199c0,0-8.8,13.9-18,18.701L502,271.401z"/>
			<path fill="#F7BF9F" d="M514.5,264.5c0,0-4.6-4.899-0.6-10l1.6,1.601l2.4-3.101c0,0,1.698-1.8,2.898-1.601
				c1.102,0.2,12.2,1.7-2.8,14.301L514.5,264.5z"/>
		</g>
	</g>
	<g>
		<g>
			<polygon fill="#FABF9F" points="462.4,376.4 464.7,429.8 470.8,429.8 475.1,376.4 			"/>
		</g>
		<path fill="#FABF9F" d="M470.3,423.7l4.8,5.6c0,0,0.2,1.4,0,2.7h-8.8c-1.6,0-2.8-1.399-2.6-3l0.8-5.3H470.3L470.3,423.7z"/>
		<path fill="#313F44" d="M464.2,425.4c0,0,3.1,2.601,6.2,2.399c3.1-0.199,1.898-1.899,1.898-1.899s6.9,4,5.9,6h-14.9
			C463.2,432,462.7,428.5,464.2,425.4z"/>
	</g>
	<g>
		<polygon fill="#FABF9F" points="479.7,376.4 482,429.8 488.1,429.8 492.3,376.4 		"/>
		<polygon fill="#FABF9F" points="487.1,423.7 503.1,429.8 501.1,430.7 482,430.7 482,426 		"/>
		<path fill="#313F44" d="M481.9,426c0,0,3.698,4.899,12.698,0.5c0,0,8.2,2,10.4,4.399c0.3,0.399,0.1,1-0.5,1l-21.6,0.101
			c-0.5,0-0.9-0.399-0.9-0.899V426H481.9z"/>
	</g>
	<path fill="#F794BA" d="M468.1,284.5c0,0-9.3,5-10.5,25.3c-1.3,20.301,0.4,60.601-2.198,72.601c0,0,23.198,6,42.898,0.899v-56.5
		c0,0,0-26-9.5-43.898L468.1,284.5z"/>
	<path fill="#47AEF7" d="M482.1,240.401c0,0,7.302,4.6,5.7,9.5c-1.5,4.898-11.3-2.701-11.3-2.701L482.1,240.401z"/>
	<path fill="#F794BA" d="M482.1,240.401l6,6.299c0,0,11.5,9.801-0.3,18.5c-7.6,5.601-5.7-10.799-5.7-10.799V240.401z"/>
	<path fill="#F794BA" d="M475.1,238.901c-0.6,0.799-13.898,4.5-13.898,13.6c0,10.3,6.2,21.101,6.2,32.101
		c0,0,21.698-1.601,21.5-1.601c-0.102,0-1.602-13.6,0-20.801l-6.802-21.699L475.1,238.901z"/>
	<g>
		<path fill="#D3D6E2" d="M499.6,256.401c0,0-2.3,19.799-1.3,34.299l17.4-6.399c0,0,0.5-22.3,6.898-36.899
			C522.7,247.5,512.3,253.5,499.6,256.401z"/>
		<g>
			<path fill="#F7BF9F" d="M468,246.5c0,0-6.8-2.5-8.4,10.2c-1.8,15.1-2.8,26.699-2.8,26.699l9.7-7.101
				C466.5,276.3,477.1,249.401,468,246.5z"/>
			<path fill="#F7BF9F" d="M466.5,276.3l27,4.801l0.5,5.399c0,0-27.5,0.399-37.2-3.101L466.5,276.3z"/>
			<path fill="#F7BF9F" d="M491.3,283.2c0,0,0.5-6.7,7-7.101l-0.1,2.3l3.898-0.3c0,0,2.5,0,3.2,1.101c0.602,1,6.9,10.199-12.5,7.6
				L491.3,283.2z"/>
		</g>
	</g>
	<g>
		<path fill="#171E21" d="M470.3,209.6c0,0-20.6-14.6-22.3,7.1c-1.1,14.9-11.4,11.2-11.4,11.2s20.5,11.101,21.301-9.7
			c0,0,0-10,12.5-6.799L470.3,209.6z"/>
		<circle fill="#47AEF7" cx="466.9" cy="211.601" r="4.7"/>
	</g>
	<ellipse fill="#E4977E" cx="488.919" cy="222.409" rx="3.4" ry="3.4"/>
	<circle fill="#171E21" cx="476.6" cy="217.901" r="14"/>
	<g>
		<g>
			<path fill="#F7BF9F" d="M472.1,242.2V228.6h10V242.2c0,2.899-2.198,4.3-5,4.3l0,0C474.4,246.5,472.1,245.101,472.1,242.2z"/>
		</g>
		<path fill="#E4977E" d="M471.1,226c0,0,1.2,12.601,11,11.899v-6.3L471.1,226z"/>
	</g>
	<path fill="#F7BF9F" d="M480.8,235.3h-1.5c-5.2,0-9.5-4.1-9.5-9.398l-0.1-12c0-1.4,1.1-2.5,2.398-2.5L485.7,211.3
		c2.398,0,4.398,1.9,4.398,4.3l0.102,10.1C490.2,231,486,235.3,480.8,235.3z"/>
	<path fill="#171E21" d="M475.1,216.2c0,0,0.102,5.701-3.6,6.3c-3.8,0.6-1.7-6.3-1.7-6.3H475.1z"/>
	<ellipse fill="#F7BF9F" cx="469.718" cy="222.209" rx="3.4" ry="3.4"/>
	<path fill="#171E21" d="M488.5,212.6c0,0-6.7,8.1-17,5.6c0,0-3.9-0.399-2.4-6.399C470.7,205.7,486.8,205.2,488.5,212.6z"/>
	<path fill="#171E21" d="M487.3,212.2c0,0,3.602,0.8,3,8.1c0,0,4.2-7.5,1.9-11.1c-3.7-5.8-10.8-1.3-10.8-1.3L487.3,212.2z"/>
	<g>
		<ellipse fill="#171E21" cx="480.402" cy="221.253" rx="0.8" ry="0.8"/>
		<ellipse fill="#171E21" cx="487.307" cy="221.365" rx="0.8" ry="0.8"/>
		
			<path fill="none" stroke="#E4977E" stroke-width="0.7937" stroke-linecap="round" stroke-linejoin="round" stroke-miterlimit="10" d="
			M485,222.6l0.2,2.4c0,0-0.102,1.2-1.9,0.8"/>
		<path fill="#171E21" d="M478.1,219c0,0,0.102,0,0.2,0l3.7-0.2c0.4,0,0.7-0.399,0.7-0.8s-0.4-0.7-0.8-0.7l-3.7,0.2
			c-0.4,0-0.7,0.4-0.7,0.8S477.8,218.9,478.1,219z"/>
		<path fill="#171E21" d="M486.6,218.8c0,0,0.102,0,0.2,0l2.3-0.101c0.4,0,0.7-0.399,0.7-0.799c0-0.4-0.398-0.701-0.8-0.701
			l-2.3,0.101c-0.4,0-0.7,0.399-0.7,0.8C485.9,218.4,486.2,218.699,486.6,218.8z"/>
		<path fill="#FFFFFF" d="M480.4,227.401h6.1c0,0-0.2,2.1-3.1,2.1C480.7,229.5,480.4,227.401,480.4,227.401z"/>
		<g>
			
				<path fill="none" stroke="#E0937E" stroke-width="0.7832" stroke-linecap="round" stroke-linejoin="round" stroke-miterlimit="10" d="
				M468,221.3c0,0,3.1-1.3,3.3,1.899"/>
			
				<path fill="none" stroke="#E0937E" stroke-width="0.7832" stroke-linecap="round" stroke-linejoin="round" stroke-miterlimit="10" d="
				M470.3,221.3c0,0-1.6,0.2-1,2.101"/>
		</g>
	</g>
	<path fill="#F487B3" d="M472,240.401c0,0,9.6,3.199,11.3,9.1c1.602,5.8-11.2-0.301-11.2-0.301l-1.8-6.399L472,240.401z"/>
	<path fill="#F487B3" d="M482.1,240.401c0,0,0.102,4-3.1,7.5s4.5-2,4.5-2L482.1,240.401z"/>
</g>
<g>
	<rect x="949.429" y="37.653" fill="#D9F0FC" width="238.046" height="171.554"/>
	<polygon fill="#8AF9DC" points="931.087,423.785 942.552,424.864 942.821,405.174 931.357,404.095 	"/>
	<g>
		<path fill="#313F44" d="M943.63,421.628c0-0.404-0.537-0.675-0.809-0.404c-1.078,0.943-3.372,2.292-7.418,1.753
			c-4.721-0.675-4.45-4.046-4.45-4.046l-14.972,4.585l0,0c-2.561,0.81-4.583,2.833-5.664,5.395l-0.268,0.674h33.717v-7.956H943.63z"
			/>
		<rect x="909.913" y="429.584" fill="#313F44" width="33.717" height="2.563"/>
	</g>
	<polygon fill="#8AF9DC" points="926.097,267.336 928.66,414.614 944.305,414.749 948.216,253.984 	"/>
	<line fill="none" x1="929.064" y1="408.411" x2="944.44" y2="408.411"/>
	
		<rect x="975.428" y="404.682" transform="matrix(0.9957 -0.0925 0.0925 0.9957 -34.1711 92.5901)" fill="#8AF9DC" width="11.597" height="20.095"/>
	<polygon fill="#8AF9DC" points="974.38,266.798 988.947,414.614 972.897,414.614 951.184,248.321 	"/>
	<g>
		<path fill="#313F44" d="M975.055,421.628c0-0.404,0.54-0.675,0.812-0.404c1.078,0.943,3.371,2.292,7.418,1.753
			c4.72-0.675,4.45-4.046,4.45-4.046l14.969,4.585l0,0c2.563,0.81,4.586,2.833,5.665,5.395l0.27,0.674H974.92v-7.956H975.055z"/>
		<rect x="975.055" y="429.584" fill="#313F44" width="33.718" height="2.563"/>
	</g>
	<line fill="none" x1="988.003" y1="408.141" x2="971.953" y2="408.411"/>
	<polygon fill="#8AF9DC" points="971.683,241.44 974.38,266.798 926.097,267.336 925.963,241.98 	"/>
	<line fill="none" x1="941.607" y1="266.932" x2="961.028" y2="266.932"/>
	<path fill="#73EFCB" d="M933.245,244.408c0,0,2.967,14.161-7.148,15.646"/>
	<path fill="#73EFCB" d="M964.939,243.869c0,0,0,14.567,8.362,14.7"/>
	<line fill="none" x1="947.406" y1="244.949" x2="947.946" y2="266.932"/>
	<line fill="none" x1="952.801" y1="244.949" x2="953.341" y2="266.932"/>
	<g>
		<path fill="#D3D6E2" d="M946.463,166.051l-24.95,11.058c-1.756,0.809-2.835,2.697-2.563,4.585l7.147,61.77
			c0,0,23.198,3.777,45.722-0.809l5.665-60.153c0.268-2.023-0.407-3.911-1.889-5.259l-15.376-11.33L946.463,166.051z"/>
		<polygon fill="#F3BB9B" points="943.092,168.074 955.498,172.927 961.028,166.588 		"/>
		<path fill="#FABF9F" d="M966.02,228.494c0,0,5.258,11.868-17.94,8.496l-23.869,1.619l1.886-7.284l15.24-1.349h17.939
			L966.02,228.494z"/>
		<path fill="#D3D6E2" d="M920.567,177.647c0,0-7.147,3.102-20.096,38.977c0,0-4.854,13.757-2.428,16.455
			c3.912,4.314,23.198,10.925,44.777,5.933l-2.428-11.195l-21.175-4.18l10.653-27.243
			C929.873,196.529,937.561,178.863,920.567,177.647z"/>
		<path fill="#D3D6E2" d="M962.107,178.322c0,0-3.237,7.148,12.004,43.697c0,0,5.933,14.026,9.575,14.432
			c5.935,0.811,24.951-6.879,37.629-25.086l-9.577-7.149l-18.745,10.79l-10.927-28.323
			C982.068,186.818,975.595,167.937,962.107,178.322z"/>
		<path fill="none" stroke="#B6BBD2" stroke-width="0.6437" stroke-miterlimit="10" d="M908.43,226.201
			c4.45-4.721,10.789-2.294,10.789-2.294l10.653-27.242c0,0,7.014-13.081-3.776-17.669"/>
		<polyline fill="none" stroke="#B6BBD2" stroke-width="0.6437" stroke-linejoin="round" stroke-miterlimit="10" points="
			943.092,168.074 947.946,178.863 955.498,172.927 963.052,176.569 961.028,166.588 		"/>
		<path fill="none" stroke="#B6BBD2" stroke-width="0.6437" stroke-linejoin="round" stroke-miterlimit="10" d="M955.498,176.703
			c0,0,0.138,14.973,1.215,20.096c1.078,5.259,2.697,26.704,2.697,26.704"/>
		<path fill="none" stroke="#B6BBD2" stroke-width="0.6437" stroke-linejoin="round" stroke-miterlimit="10" d="M925.963,241.578
			c0,0,14.024-0.406,16.722-2.429l-2.561-9.577"/>
		<path fill="none" stroke="#B6BBD2" stroke-width="0.6437" stroke-linejoin="round" stroke-miterlimit="10" d="M971.144,180.886
			c0,0,4.316,15.51,1.887,36.684"/>
	</g>
	<g>
		<path fill="#B0B4C4" d="M934.999,230.517h38.168v-4.315h-38.168c-1.214,0-2.16,0.944-2.16,2.158l0,0
			C932.841,229.439,933.785,230.517,934.999,230.517z"/>
		<g>
			<path fill="#B0B4C4" d="M968.177,230.517h50.711c2.967,0,5.531-1.889,6.206-4.72l9.845-35.472
				c0.809-3.102-1.482-6.205-4.721-6.205h-46.531c-1.889,0-3.642,1.349-4.181,3.236L968.177,230.517z"/>
			<circle fill="none" stroke="#FFFFFF" stroke-width="0.8583" stroke-miterlimit="10" cx="1004.861" cy="207.32" r="4.855"/>
		</g>
	</g>
	<g>
		<ellipse fill="#E0937E" cx="970.147" cy="139.869" rx="4.721" ry="4.721"/>
		<path fill="#171E21" d="M972.223,128.961c0,0,4.721,4.99-1.079,12.947l-4.857-11.194L972.223,128.961z"/>
		<g>
			<g>
				<polygon fill="#F3BB9B" points="960.894,154.45 945.519,143.797 942.686,149.866 943.092,168.074 961.028,166.588 				"/>
			</g>
			<path fill="#E0937E" d="M961.028,163.486c0,0-14.835,2.427-13.623-17.669l4.99,2.833l8.767,9.711L961.028,163.486z"/>
		</g>
		<path fill="#F3BB9B" d="M961.974,159.307l-1.889,0.269c-6.744,0.809-12.813-4.046-13.622-10.655l-1.754-15.375
			c-0.268-1.753,1.081-3.372,2.834-3.507l17.396-2.023c3.104-0.404,5.935,1.888,6.206,4.99l1.482,12.948
			C973.571,152.563,968.717,158.633,961.974,159.307z"/>
		<g>
			<path fill="#171E21" d="M946.731,142.852l2.023-9.037c0,0,21.042-0.135,25.357-6.609c4.181-6.204-0.943-14.161-5.127-14.565
				c-3.372-0.27-6.474,3.237-8.767,4.855c-2.29,1.618-8.359,1.213-10.115,1.349c-1.753,0.135-8.496,0.674-9.708,9.036
				c0,0-13.083,5.125,2.561,24.413C942.821,152.427,947.542,148.785,946.731,142.852z"/>
			
				<path fill="none" stroke="#171E21" stroke-width="1.316" stroke-linecap="round" stroke-linejoin="round" stroke-miterlimit="10" d="
				M939.313,124.24c0,0-0.537,2.833,2.023,4.855"/>
			
				<path fill="none" stroke="#171E21" stroke-width="1.316" stroke-linecap="round" stroke-linejoin="round" stroke-miterlimit="10" d="
				M937.291,128.824c0,0,3.104-0.809,3.104,0.675"/>
			<path fill="#171E21" d="M950.778,133.275c0,0,2.967,8.632-4.181,11.464c-4.854,1.889,0.27-12.272,0.27-12.272L950.778,133.275z"
				/>
		</g>
		<ellipse fill="#F3BB9B" cx="944.253" cy="143.51" rx="4.72" ry="4.72"/>
		<g>
			<ellipse fill="#171E21" cx="959.501" cy="140.95" rx="1.079" ry="1.079"/>
			<ellipse fill="#171E21" cx="968.538" cy="139.872" rx="1.079" ry="1.079"/>
			
				<path fill="none" stroke="#E0937E" stroke-width="0.7607" stroke-linecap="round" stroke-linejoin="round" stroke-miterlimit="10" d="
				M965.479,140.559l0.809,4.316c0,0,0,1.617-2.291,1.213"/>
			<path fill="#171E21" d="M956.442,138.265L956.442,138.265l4.857-0.674c0.538-0.135,0.942-0.539,0.809-1.079
				c-0.134-0.54-0.539-0.944-1.078-0.809l-4.721,0.674c-0.54,0.135-0.944,0.539-0.812,1.079
				C955.634,137.861,956.038,138.265,956.442,138.265z"/>
			<path fill="#171E21" d="M967.232,136.782L967.232,136.782l2.968-0.404c0.539-0.135,0.943-0.54,0.809-1.08
				c-0.135-0.539-0.538-0.944-1.079-0.809l-2.832,0.404c-0.54,0.135-0.944,0.54-0.812,1.079
				C966.424,136.378,966.693,136.782,967.232,136.782z"/>
			<g>
				
					<path fill="none" stroke="#E0937E" stroke-width="0.7607" stroke-linecap="round" stroke-linejoin="round" stroke-miterlimit="10" d="
					M942.147,142.312c0,0,4.046-1.753,4.315,2.427"/>
				
					<path fill="none" stroke="#E0937E" stroke-width="0.7607" stroke-linecap="round" stroke-linejoin="round" stroke-miterlimit="10" d="
					M945.114,142.312c0,0-2.022,0.27-1.349,2.697"/>
			</g>
			
				<path fill="none" stroke="#E0937E" stroke-width="0.7607" stroke-linecap="round" stroke-linejoin="round" stroke-miterlimit="10" d="
				M959.544,148.65c0,0,2.563,2.023,7.958,0.27"/>
		</g>
	</g>
	<polygon fill="#FABF9F" points="1176.821,423.381 1165.627,424.46 1165.356,405.174 1176.551,404.095 	"/>
	<g>
		<path fill="#313F44" d="M1164.547,421.224c0-0.406,0.407-0.675,0.812-0.406c1.078,0.945,3.371,2.294,7.28,1.755
			c4.587-0.675,4.316-3.91,4.316-3.91l14.701,4.45l0,0c2.563,0.81,4.586,2.697,5.529,5.259l0.271,0.675h-32.909V421.224z"/>
		<rect x="1164.547" y="429.046" fill="#010101" width="32.909" height="2.429"/>
	</g>
	<polygon fill="#F9D76B" points="1176.821,269.9 1179.248,414.345 1163.872,414.48 1155.241,256.683 	"/>
	<line fill="none" stroke="#8BB1F7" stroke-miterlimit="10" x1="1178.844" y1="408.275" x2="1163.738" y2="408.275"/>
	<polygon fill="#FABF9F" points="1133.797,423.651 1145.126,424.729 1145.935,405.174 1134.606,404.095 	"/>
	<polygon fill="#F9D76B" points="1131.64,269.359 1131.909,414.345 1147.554,414.345 1152.408,251.151 	"/>
	<g>
		<path fill="#313F44" d="M1146.475,421.224c0-0.406-0.404-0.675-0.811-0.406c-1.079,0.945-3.372,2.294-7.281,1.755
			c-4.586-0.675-4.316-3.91-4.316-3.91l-14.701,4.45l0,0c-2.561,0.81-4.583,2.697-5.529,5.259l-0.27,0.675h32.908V421.224z"/>
		<rect x="1113.566" y="429.18" fill="#010101" width="32.908" height="2.428"/>
	</g>
	<line fill="none" stroke="#8BB1F7" stroke-miterlimit="10" x1="1131.773" y1="408.005" x2="1147.419" y2="408.275"/>
	<polygon fill="#F9D76B" points="1132.313,244.408 1131.64,269.359 1176.821,269.9 1176.955,244.949 	"/>
	<line fill="none" x1="1161.715" y1="269.9" x2="1142.699" y2="269.9"/>
	<path fill="none" stroke="#EAC057" stroke-miterlimit="10" d="M1138.922,247.241c0,0,1.081,14.296-7.148,14.43"/>
	<line fill="none" stroke="#EAC057" stroke-miterlimit="10" x1="1156.05" y1="248.321" x2="1155.512" y2="269.9"/>
	<line fill="none" stroke="#EAC057" stroke-miterlimit="10" x1="1150.791" y1="248.321" x2="1150.251" y2="269.9"/>
	<g>
		<path fill="#F7BF9F" d="M1096.573,224.853c0,0-1.619-11.734-10.52-12.274l1.212,5.665l-5.258-0.404c0,0-3.372,0-4.316,1.485
			c-0.812,1.349-7.418,13.89,18.882,10.384V224.853z"/>
		<g>
			<g>
				<path fill="#8E889E" d="M1074.454,208.535l2.697,20.231c0.137,1.349,1.349,2.426,2.834,2.426h9.441
					c1.482,0,2.697-1.077,2.832-2.562l2.427-20.095H1074.454L1074.454,208.535z"/>
				<path fill="#D3D6E2" d="M1096.033,208.803h-23.063v-1.214c0-1.077,0.809-1.887,1.886-1.887h19.289
					c1.079,0,1.887,0.81,1.887,1.887L1096.033,208.803L1096.033,208.803z"/>
				<path fill="#D3D6E2" d="M1093.201,205.7h-17.263v-1.483c0-0.944,0.674-1.619,1.616-1.619h14.028
					c0.944,0,1.618,0.674,1.618,1.619V205.7z"/>
			</g>
			<ellipse fill="#FFFFFF" cx="1084.569" cy="218.378" rx="4.315" ry="4.315"/>
		</g>
		<path fill="#F7BF9F" d="M1075.398,227.55L1075.398,227.55c-0.54,0-0.944-0.271-1.079-0.811l-1.214-11.868
			c0-0.539,0.404-0.944,1.078-0.944h1.215c1.618,0,2.968,1.08,2.968,2.429v8.767C1078.366,226.471,1077.017,227.55,1075.398,227.55z
			"/>
	</g>
	<path fill="#D95EF7" d="M1143.777,182.909c0,0,9.037,7.012-5.935,42.888c0,0-5.799,12.678-9.304,13.218
		c-5.802,0.811-22.119-1.754-32.369-6.607l-0.54-12.678l26.704,1.214l0.944-27.784c0.271-1.483,1.079-7.418,3.776-10.654
		C1127.054,182.504,1133.662,175.22,1143.777,182.909z"/>
	<path fill="none" stroke="#3F76D2" stroke-width="0.6869" stroke-miterlimit="10" d="M1122.469,221.076c0,0,2.56,1.482,4.583,4.989
		"/>
	<path fill="#D3D6E2" d="M1156.86,170.904l24.411,10.79c1.753,0.81,2.697,2.562,2.563,4.45l-7.013,60.692
		c0,0-22.658,3.777-44.777-0.809l-5.665-58.939c-0.271-1.887,0.404-3.776,1.889-5.125l15.105-11.195L1156.86,170.904z"/>
	<polyline fill="none" stroke="#B6BBD2" stroke-width="0.6306" stroke-linejoin="round" stroke-miterlimit="10" points="
		1142.699,171.445 1142.699,182.909 1148.094,177.647 1155.512,183.584 1160.366,172.927 	"/>
	<path fill="#D95EF7" d="M1160.366,172.389c0,0-5.935,22.253-6.339,55.835c0,0,0.674,22.928,1.214,28.459
		c0,0,30.076,0.942,31.021,0.405c0.809-0.54-3.912-74.853-3.912-74.853S1164.008,172.657,1160.366,172.389z"/>
	<path fill="#E27AFC" d="M1160.366,172.389c0,0,4.99,6.877,6.878,13.621l-3.909,4.317l3.909,5.124c0,0-7.418,19.962-11.731,47.205"
		/>
	<path fill="#D95EF7" d="M1142.699,171.309c0,0,0.941,65.682,1.753,85.104c0,0-14.701-0.405-16.321-2.429
		c0,0,2.967-28.591-2.697-67.3l1.755-4.18L1142.699,171.309"/>
	<path fill="#E27AFC" d="M1141.08,174.546c0,0-3.911,6.204-6.88,13.621l3.371,2.698l-3.371,6.206c0,0,8.229,31.963,7.824,43.021"/>
	<path fill="#A612C9" d="M1127.054,200.711c0,0,2.159,20.77,1.753,34.798"/>
	<polygon fill="#9A96A8" points="1149.173,221.616 1205.278,242.655 1201.771,281.363 1146.609,260.46 	"/>
	<polygon fill="#FFFFFF" points="1153.757,219.728 1207.841,241.036 1201.771,281.363 1146.609,260.46 	"/>
	<polygon fill="#9A96A8" points="1156.186,218.783 1210.269,240.092 1201.771,281.363 1146.609,260.46 	"/>
	<g>
		<path fill="#E27AFC" d="M1181.541,181.964c0,0,5.125,1.617,21.039,35.471c0,0,3.372,10.52,2.698,13.891
			c-1.483,7.824-18.883,35.337-18.883,35.337l-9.306-8.631l9.98-30.346l-12.813-26.569
			C1174.123,201.25,1164.952,184.661,1181.541,181.964z"/>
		<path fill="#E27AFC" d="M1175.067,184.527c0,0-6.206,5.529-0.811,16.723c5.395,11.06,12.813,26.569,12.813,26.569l-9.979,30.346"
			/>
		<path fill="#E27AFC" d="M1187.07,227.686c0,0,3.776-3.104,10.924,0.269"/>
	</g>
	<path fill="#F7BF9F" d="M1177.765,258.569l-4.046,5.665c0,0-5.802,1.213-6.069,4.314c-0.27,3.104-0.539,8.093,6.744,10.79
		c7.28,2.697,8.629-12.003,8.629-12.003l1.35-2.697L1177.765,258.569z"/>
	<g>
		<ellipse fill="#E0937E" cx="1135.666" cy="146.615" rx="4.72" ry="4.72"/>
		<path fill="#171E21" d="M1133.662,130.443c0,0-9.036,13.891,4.584,14.835l3.371-7.284l-2.964-7.552H1133.662z"/>
		<g>
			<polygon fill="#F3BB9B" points="1157.804,149.866 1142.833,160.249 1142.699,172.12 1148.094,178.189 1160.366,173.602 
				1160.637,151.752 			"/>
			<path fill="#E0937E" d="M1142.699,169.691c0,0,19.148,0.674,16.185-19.286l-4.721,3.372l-11.197,9.037L1142.699,169.691z"/>
		</g>
		<path fill="#F3BB9B" d="M1146.205,165.239h0.54c7.147,0.27,13.08-5.395,13.35-12.542l0.404-16.725
			c0-1.888-1.349-3.372-3.234-3.506l-17.129-0.405c-3.371-0.135-6.069,2.563-6.203,5.8l-0.407,14.026
			C1133.393,159.036,1139.058,164.971,1146.205,165.239z"/>
		<path fill="#171E21" d="M1169.673,133.815c-0.812-6.609-6.609-6.204-6.609-6.204l0,0c-2.157-4.181-8.092-7.958-15.105-7.823
			c-9.44,0.135-18.07,5.125-19.69,10.115c-1.619,4.99,5.665,4.99,5.665,4.99s10.652,0.944,19.286,0.54
			c-0.54,3.642-0.404,9.441,6.069,9.846l1.078,11.06C1160.366,156.338,1170.616,142.312,1169.673,133.815z"/>
		<ellipse fill="#F3BB9B" cx="1161.802" cy="147.788" rx="4.72" ry="4.72"/>
		<g>
			<ellipse fill="#171E21" cx="1146.257" cy="146.642" rx="1.079" ry="1.079"/>
			<ellipse fill="#171E21" cx="1137.223" cy="146.372" rx="1.079" ry="1.079"/>
			
				<path fill="none" stroke="#E0937E" stroke-width="0.7627" stroke-linecap="round" stroke-linejoin="round" stroke-miterlimit="10" d="
				M1140.811,146.762l-0.404,4.316c0,0,0.134,1.619,2.427,1.079"/>
			<path fill="#171E21" d="M1149.173,143.66L1149.173,143.66l-4.857-0.27c-0.538,0-0.942-0.539-0.942-1.079s0.538-0.944,1.079-0.944
				l4.721,0.27c0.537,0,0.944,0.54,0.944,1.079C1149.981,143.256,1149.577,143.526,1149.173,143.66z"/>
			<path fill="#171E21" d="M1138.247,143.123L1138.247,143.123l-3.102-0.135c-0.537,0-0.944-0.539-0.944-1.079
				s0.54-0.944,1.081-0.944l2.965,0.135c0.54,0,0.944,0.539,0.944,1.078C1139.058,142.716,1138.787,143.123,1138.247,143.123z"/>
			<g>
				<circle fill="none" stroke="#FFFFFF" stroke-width="0.4574" stroke-miterlimit="10" cx="1134.471" cy="145.009" r="5.665"/>
				
					<ellipse fill="none" stroke="#FFFFFF" stroke-width="0.4574" stroke-miterlimit="10" cx="1147.438" cy="145.16" rx="5.665" ry="5.665"/>
				
					<line fill="none" stroke="#FFFFFF" stroke-width="0.4574" stroke-miterlimit="10" x1="1153.083" y1="145.009" x2="1157.938" y2="145.009"/>
				
					<line fill="none" stroke="#FFFFFF" stroke-width="0.4574" stroke-miterlimit="10" x1="1141.889" y1="145.009" x2="1140.136" y2="145.009"/>
			</g>
			<g>
				
					<path fill="none" stroke="#E0937E" stroke-width="0.7627" stroke-linecap="round" stroke-linejoin="round" stroke-miterlimit="10" d="
					M1163.872,146.495c0,0-4.18-1.349-4.18,2.832"/>
				
					<path fill="none" stroke="#E0937E" stroke-width="0.7627" stroke-linecap="round" stroke-linejoin="round" stroke-miterlimit="10" d="
					M1160.771,146.762c0,0,2.023,0.136,1.619,2.563"/>
			</g>
			<path fill="#FFFFFF" d="M1138.247,154.18h9.037c0,0-1.212,3.102-5.396,2.833C1138.112,156.743,1138.247,154.18,1138.247,154.18z"
				/>
		</g>
	</g>
	<g>
		<path fill="#8BB1F7" d="M906.811,132.871h-58.803c-3.237,0-5.935-2.698-5.935-5.934v-12.003c0-3.237,2.697-5.935,5.935-5.935
			h58.803c3.237,0,5.936,2.698,5.936,5.935v12.003C912.746,130.173,910.048,132.871,906.811,132.871z"/>
		<path fill="#8BB1F7" d="M850.436,128.15v9.576c0,1.349,1.753,2.158,2.697,1.079l10.652-10.655H850.436L850.436,128.15z"/>
	</g>
	<g>
		<path fill="#57EAE6" d="M1063.8,140.019h40.865c3.235,0,5.933-2.698,5.933-5.935v-12.003c0-3.237-2.697-5.935-5.933-5.935H1063.8
			c-3.237,0-5.935,2.698-5.935,5.935v12.003C1057.865,137.456,1060.563,140.019,1063.8,140.019z"/>
		<path fill="#57EAE6" d="M1102.238,135.433v9.576c0,1.349-1.756,2.157-2.698,1.079l-10.654-10.654H1102.238L1102.238,135.433z"/>
	</g>
</g>
<g>
	<polygon fill="#565656" points="640.6,425.7 632.1,426.5 631.9,412 640.4,411.2 	"/>
	<g>
		<path fill="#565656" d="M631.3,424.101c0-0.3,0.4-0.5,0.602-0.3c0.8,0.699,2.5,1.699,5.5,1.3c3.5-0.5,3.3-3,3.3-3l11.1,3.399l0,0
			c1.9,0.601,3.4,2.101,4.2,3.9l0.2,0.5h-25V424.1L631.3,424.101L631.3,424.101z"/>
		<rect x="631.3" y="430" fill="#565656" width="25" height="1.9"/>
	</g>
	<polygon fill="#565656" points="644.3,309.801 642.4,419 630.8,419 627.9,299.801 	"/>
	<polygon fill="#565656" points="642.1,414.601 630.7,414.601 630.7,414 642.1,414.101 	"/>
</g>
<g>
	
		<rect x="595.982" y="414.727" transform="matrix(0.0925 -0.9957 0.9957 0.0925 130.3595 981.0902)" fill="#565656" width="14.9" height="8.598"/>
	<polygon fill="#565656" points="608.6,309.301 597.8,418.9 609.6,418.9 625.8,295.602 	"/>
	<g>
		<path fill="#565656" d="M608,424.101c0-0.3-0.4-0.5-0.6-0.3c-0.802,0.699-2.5,1.699-5.5,1.3c-3.5-0.5-3.302-3-3.302-3l-11.1,3.399
			l0,0c-1.9,0.601-3.4,2.101-4.2,3.9l-0.2,0.5h25L608,424.101L608,424.101z"/>
		<rect x="583.1" y="430.101" fill="#565656" width="25" height="1.899"/>
	</g>
	
		<rect x="604.202" y="408.261" transform="matrix(0.0137 -0.9999 0.9999 0.0137 182.0167 1012.9431)" fill="#565656" width="0.5" height="11.9"/>
</g>
<g>
	<polygon fill="#565656" points="610.5,290.5 608.6,309.301 644.3,309.801 644.4,290.9 	"/>
	<rect x="618.4" y="309.5" fill="#565656" width="14.398" height="0.5"/>
	<path fill="#565656" d="M644.3,304.9c-1.898-0.301-3.3-1.2-4.3-2.601c-2.4-3.5-1.3-9.101-1.2-9.399l0.5,0.1
		c0,0.102-1.1,5.602,1.2,9c0.9,1.301,2.2,2.101,4,2.4L644.3,304.9z"/>
	<path fill="#565656" d="M609.3,303.7v-0.5c5.9-0.101,6-10.5,6-10.601h0.5c0,0.101,0,2.801-0.8,5.5C614,301.7,612,303.7,609.3,303.7
		z"/>
	
		<rect x="620.179" y="301.425" transform="matrix(0.0232 -0.9997 0.9997 0.0232 312.1646 922.8397)" fill="#565656" width="16.298" height="0.5"/>
	
		<rect x="616.115" y="301.393" transform="matrix(0.0232 -0.9997 0.9997 0.0232 308.227 918.7457)" fill="#565656" width="16.299" height="0.5"/>
</g>
<g>
	<polygon fill="#F0B99B" points="577.5,262 586.5,270.5 582.9,276.4 573.5,266.2 	"/>
	<path fill="#F0B99B" d="M577.5,262v-10.898c0-0.602-0.4-1-0.9-1.102l0,0c-0.6-0.1-1.198,0.2-1.398,0.801l-0.8,3l-7-7.601
		c-0.602-0.601-1.602-0.5-2,0.3l-2.302,4.301c-0.198,0.399-0.198,0.801,0,1.1c1.2,2.5,6.2,12.4,10.5,14.301L577.5,262z"/>
</g>
<path fill="#F9D76B" d="M617.7,244c0,0,2.398,5.301-8.9,32.4c0,0-6.2,11.3-8.898,11.6c-4.4,0.602-16.7-6-26.102-19.5l7.102-5.3
	l13.898,8l8.102-21C602.8,250.301,607.6,236.301,617.7,244z"/>
<path fill="none" stroke="#DD9180" stroke-width="0.6625" stroke-linecap="round" stroke-linejoin="round" stroke-miterlimit="10" d="
	M572.2,253.7c0,0-2.8,1.8-2.9,5.8"/>
<path fill="none" stroke="#EAC057" stroke-miterlimit="10" d="M594.7,271.301c0,0,2.7,1.301,3,6.301"/>
<path fill="#F9D76B" d="M629.2,234.9l18.5,8.199c1.3,0.601,2.1,2,1.898,3.399l-5.3,45.801c0,0-17.2,2.8-33.898-0.601l-4.2-44.5
	c-0.2-1.5,0.3-2.899,1.398-3.899l11.4-8.399H629.2L629.2,234.9z"/>
<polyline fill="none" stroke="#EAC057" stroke-miterlimit="10" points="631.8,236.4 628.2,244.5 622.5,240 616.9,242.7 618.4,235.4 
	"/>
<path fill="none" stroke="#EAC057" stroke-miterlimit="10" d="M622.5,242.801c0,0-0.3,11-0.9,14.899c-2.5,16.5,0.9,28.5,0.9,28.5"/>
<path fill="none" stroke="#EAC057" stroke-miterlimit="10" d="M611,245.9c0,0-3.2,11.5-1.4,27.199"/>
<g>
	<polygon fill="#F0B99B" points="628.3,282.102 640.7,281.801 642.4,288.5 628.5,287.9 	"/>
	<path fill="#F0B99B" d="M628.3,282.102l-7.7-7.602c-0.398-0.398-1-0.398-1.5-0.1l0,0c-0.5,0.3-0.698,1-0.398,1.6l1.5,2.7
		l-6.7-0.399c-0.9,0-1.5,0.801-1.3,1.6l1.398,4.701c0.102,0.398,0.4,0.699,0.802,0.799c2.6,0.9,9.6,4.4,13.898,2.601V282.102z"/>
</g>
<g>
	<path fill="#F9D76B" d="M648.4,243.602c0,0,5.3,2.299,14.898,28.898c0,0,3.602,10.2,1.8,12.2c-2.898,3.2-17.198,8.101-33.198,4.399
		l-0.2-8.699l17.7-2.7l-7.9-20.2C641.5,257.5,635.8,244.4,648.4,243.602z"/>
	<path fill="#F9D76B" d="M657.4,279.5c-3.302-3.5-8-1.699-8-1.699l-7.9-20.199c0,0-5.2-9.701,2.8-13.102"/>
	<path fill="#F9D76B" d="M644.4,290.9c0,0-10,0.6-12.602,0v-10.5l17.7-2.7"/>
</g>
<g>
	<path fill="#171E21" d="M610.1,207.5c0,0-3.5,3.7,0.802,9.6l3.6-8.3L610.1,207.5z"/>
	<g>
		<polygon fill="#F0B99B" points="629.9,218.5 618.5,226.301 618.4,235.4 622.5,240 631.8,236.4 632,223 		"/>
		<path fill="#DD9180" d="M618.4,233c0,0,11,1.801,10.1-13.1l-3.7,2.1l-6.5,7.2L618.4,233z"/>
	</g>
	<path fill="#F0B99B" d="M617.6,230l1.5,0.2c4.9,0.601,9.4-3,10-7.899l1.302-11.5c0.1-1.3-0.802-2.4-2-2.6l-13-1.5
		c-2.302-0.3-4.4,1.4-4.602,3.7l-1.1,9.701C609.2,224.9,612.7,229.4,617.6,230z"/>
	<path fill="#171E21" d="M634,206c-1-6.5-6.2-6.9-7.6-7c-1.4-0.1-5.2,1.2-7-0.1c-1.7-1.2-3.802-3.9-8.5-2.9
		c-3.2,0.7-5.602,5.5-2.302,10.4c3,4.5,16.602,4.2,19.4,4c-0.5,2.1-1.5,7.2,1,9.3c0.5,3.3,3,5.3,3,5.3C646.9,208.3,634,206,634,206z
		"/>
	<ellipse fill="#F0B99B" cx="630.761" cy="218.371" rx="3.5" ry="3.5"/>
	<g>
		<ellipse fill="#171E21" cx="619.559" cy="216.413" rx="0.8" ry="0.8"/>
		<ellipse fill="#171E21" cx="612.839" cy="215.618" rx="0.8" ry="0.8"/>
		
			<path fill="none" stroke="#DD9180" stroke-width="0.6625" stroke-linecap="round" stroke-linejoin="round" stroke-miterlimit="10" d="
			M615.1,216l-0.6,3.2c0,0,0,1.2,1.7,0.899"/>
		<path fill="#171E21" d="M621.8,214.3L621.8,214.3l-3.6-0.5c-0.4-0.1-0.7-0.4-0.602-0.8c0.102-0.4,0.4-0.7,0.802-0.6l3.5,0.5
			c0.398,0.1,0.698,0.4,0.6,0.8C622.5,214.101,622.2,214.3,621.8,214.3z"/>
		<path fill="#171E21" d="M613.8,213.2L613.8,213.2l-2.2-0.3c-0.398-0.1-0.698-0.4-0.6-0.8c0.1-0.4,0.4-0.7,0.8-0.6l2.102,0.3
			c0.398,0.1,0.698,0.4,0.6,0.8C614.5,213,614.2,213.2,613.8,213.2z"/>
		<g>
			
				<path fill="none" stroke="#DD9180" stroke-width="0.6625" stroke-linecap="round" stroke-linejoin="round" stroke-miterlimit="10" d="
				M632.4,217.3c0,0-3-1.3-3.2,1.8"/>
			
				<path fill="none" stroke="#DD9180" stroke-width="0.6625" stroke-linecap="round" stroke-linejoin="round" stroke-miterlimit="10" d="
				M630.2,217.4c0,0,1.5,0.199,1,2"/>
		</g>
		<g>
			<path fill="#171E21" d="M610.7,219.4c-0.2,0-0.4,0-0.5,0c-2.602-0.301-4.4-2.601-4.102-5.2c0.302-2.6,2.602-4.4,5.2-4.1
				c2.602,0.3,4.4,2.6,4.102,5.2C615,217.602,613,219.4,610.7,219.4z M610.7,210.4c-2.102,0-4,1.6-4.2,3.8c-0.3,2.3,1.4,4.5,3.8,4.7
				c2.3,0.3,4.5-1.4,4.7-3.8c0.3-2.3-1.4-4.5-3.8-4.7C611,210.5,610.8,210.4,610.7,210.4z"/>
			<path fill="#171E21" d="M620.9,220.602c-0.2,0-0.4,0-0.5,0c-1.2-0.101-2.302-0.801-3.102-1.701c-1.6-2-1.3-5,0.8-6.6
				c1-0.8,2.2-1.1,3.4-1c1.2,0.1,2.3,0.8,3.1,1.7c1.602,2,1.302,5-0.8,6.601C622.9,220.2,621.9,220.602,620.9,220.602z
				 M620.9,211.601c-1,0-1.9,0.3-2.602,0.9c-1.8,1.5-2.2,4.2-0.7,6c0.7,0.899,1.7,1.5,2.9,1.601c1.1,0.1,2.2-0.201,3.1-0.9
				c0.9-0.7,1.5-1.7,1.602-2.9c0.1-1.1-0.2-2.2-0.9-3.1l0,0c-0.7-0.9-1.7-1.5-2.898-1.6C621.2,211.601,621,211.601,620.9,211.601z"
				/>
			<polygon fill="#171E21" points="627.4,217 625.3,216.602 625.3,216.2 627.5,216.602 			"/>
			
				<rect x="615.539" y="214.594" transform="matrix(0.1147 -0.9934 0.9934 0.1147 331.2796 802.2263)" fill="#171E21" width="0.4" height="1.302"/>
		</g>
		
			<path fill="none" stroke="#DD9180" stroke-width="0.6625" stroke-linecap="round" stroke-linejoin="round" stroke-miterlimit="10" d="
			M619.5,222c0,0-1.9,1.5-5.9,0.2"/>
	</g>
</g>
<g opacity="0.5">
	<circle fill="#C9C9C9" cx="716.381" cy="192.1" r="18.4"/>
	<circle fill="#FFFFFF" cx="716.381" cy="192.1" r="15.6"/>
	<ellipse fill="#C9C9C9" cx="716.28" cy="178.4" rx="1.102" ry="3"/>
	<ellipse fill="#C9C9C9" cx="716.28" cy="206.3" rx="1.102" ry="3"/>
	<ellipse fill="#C9C9C9" cx="730.28" cy="192.3" rx="3" ry="1.1"/>
	<ellipse fill="#C9C9C9" cx="702.381" cy="192.3" rx="3" ry="1.1"/>
	
		<ellipse transform="matrix(-0.7071 0.7071 -0.7071 -0.7071 1368.7004 -201.9399)" fill="#C9C9C9" cx="726.177" cy="182.52" rx="3" ry="1.1"/>
	
		<ellipse transform="matrix(-0.7071 0.7071 -0.7071 -0.7071 1349.0156 -154.4026)" fill="#C9C9C9" cx="706.488" cy="202.212" rx="3" ry="1.1"/>
	
		<ellipse transform="matrix(-0.7071 0.7071 -0.7071 -0.7071 1382.6416 -168.2968)" fill="#C9C9C9" cx="726.176" cy="202.206" rx="1.1" ry="3"/>
	
		<ellipse transform="matrix(-0.7071 0.7071 -0.7071 -0.7071 1335.1284 -188.0244)" fill="#C9C9C9" cx="706.505" cy="182.502" rx="1.1" ry="2.999"/>
	<circle fill="#C9C9C9" cx="716.381" cy="192.1" r="1.8"/>
	<g>
		<polygon fill="#C9C9C9" points="715.28,191.4 722.98,186.4 716.58,192.9 		"/>
	</g>
	<g>
		<polygon fill="#C9C9C9" points="711.681,188.3 716.58,191.4 715.28,192.9 		"/>
	</g>
</g>
<g opacity="0.5">
	<path fill="#D8D8D8" d="M815.277,433.301h-36.301c-2.398,0-4.3-2-4.3-4.301v-82.699c0-2.399,2-4.301,4.3-4.301h36.301
		c2.398,0,4.3,2,4.3,4.301V429C819.577,431.301,817.577,433.301,815.277,433.301z"/>
	<path fill="#D2D2D2" d="M817.077,341.9c0.1,0.3,0.1,0.6,0.1,0.899v85c0,1.699-1.398,3.199-3.2,3.199h-38.6c-0.2,0-0.5,0-0.7-0.1
		c0.4,1.3,1.602,2.3,3.102,2.3h38.6c1.7,0,3.2-1.399,3.2-3.2v-85C819.577,343.601,818.477,342.2,817.077,341.9z"/>
	<g>
		<g>
			<path fill="#D0D0D0" d="M811.577,362.801h-29.101c-2.3,0-4.198-1.899-4.198-4.2v-6.5c0-2.3,1.898-4.199,4.198-4.199h29.101
				c2.3,0,4.2,1.899,4.2,4.199v6.5C815.777,360.9,813.877,362.801,811.577,362.801z"/>
			<path fill="#D0D0D0" d="M811.577,384h-29.101c-2.3,0-4.198-1.899-4.198-4.199v-6.5c0-2.301,1.898-4.2,4.198-4.2h29.101
				c2.3,0,4.2,1.899,4.2,4.2v6.5C815.777,382.101,813.877,384,811.577,384z"/>
			<path fill="#D0D0D0" d="M811.577,405.101h-29.101c-2.3,0-4.198-1.899-4.198-4.199v-6.5c0-2.301,1.898-4.2,4.198-4.2h29.101
				c2.3,0,4.2,1.899,4.2,4.2v6.5C815.777,403.2,813.877,405.101,811.577,405.101z"/>
			<path fill="#D0D0D0" d="M811.577,426.301h-29.101c-2.3,0-4.198-1.899-4.198-4.2v-6.5c0-2.3,1.898-4.199,4.198-4.199h29.101
				c2.3,0,4.2,1.899,4.2,4.199v6.5C815.777,424.5,813.877,426.301,811.577,426.301z"/>
		</g>
		<path fill="#C4C4C4" d="M813.077,347.9c0.3,0.399,0.398,1,0.398,1.5v8.699c0,1.7-1.398,3.101-3.1,3.101h-31.3
			c-0.101,0-0.2,0-0.3,0c0.6,0.899,1.5,1.5,2.699,1.5h31.301c1.699,0,3.1-1.399,3.1-3.101V350.9
			C815.777,349.301,814.577,348,813.077,347.9z"/>
		<path fill="#C4C4C4" d="M813.077,369.101c0.3,0.399,0.398,1,0.398,1.5v8.7c0,1.699-1.398,3.101-3.1,3.101h-31.3
			c-0.101,0-0.2,0-0.3,0c0.6,0.899,1.5,1.5,2.699,1.5h31.301c1.699,0,3.1-1.4,3.1-3.101v-8.7
			C815.777,370.601,814.577,369.2,813.077,369.101z"/>
		<path fill="#C4C4C4" d="M813.077,390.301c0.3,0.399,0.398,1,0.398,1.5v8.699c0,1.7-1.398,3.101-3.1,3.101h-31.3
			c-0.101,0-0.2,0-0.3,0c0.6,0.899,1.5,1.5,2.699,1.5h31.301c1.699,0,3.1-1.399,3.1-3.101v-8.699
			C815.777,391.7,814.577,390.4,813.077,390.301z"/>
		<path fill="#C4C4C4" d="M813.077,411.5c0.3,0.4,0.398,1,0.398,1.5v8.7c0,1.7-1.398,3.101-3.1,3.101h-31.3c-0.101,0-0.2,0-0.3,0
			c0.6,0.899,1.5,1.5,2.699,1.5h31.301c1.699,0,3.1-1.399,3.1-3.101v-8.7C815.777,412.9,814.577,411.601,813.077,411.5z"/>
	</g>
	<path fill="#D7D7D7" d="M807.877,359.5h-23.5c-2,0-3.7-1.699-3.7-3.699v-2.5c0-2,1.7-3.7,3.7-3.7h23.5c2,0,3.7,1.7,3.7,3.7v2.5
		C811.477,357.801,809.877,359.5,807.877,359.5z"/>
	<path fill="#D7D7D7" d="M807.877,380.601h-23.5c-2,0-3.7-1.699-3.7-3.699v-2.5c0-2,1.7-3.7,3.7-3.7h23.5c2,0,3.7,1.7,3.7,3.7v2.5
		C811.477,378.9,809.877,380.601,807.877,380.601z"/>
	<path fill="#D7D7D7" d="M807.877,401.801h-23.5c-2,0-3.7-1.7-3.7-3.7v-2.5c0-2,1.7-3.699,3.7-3.699h23.5c2,0,3.7,1.699,3.7,3.699
		v2.5C811.477,400.101,809.877,401.801,807.877,401.801z"/>
	<path fill="#D7D7D7" d="M807.877,422.9h-23.5c-2,0-3.7-1.7-3.7-3.7v-2.5c0-2,1.7-3.7,3.7-3.7h23.5c2,0,3.7,1.7,3.7,3.7v2.5
		C811.477,421.301,809.877,422.9,807.877,422.9z"/>
	<g>
		<g>
			<circle fill="#B0B0B0" cx="797.077" cy="355.4" r="2.4"/>
			<circle fill="#B0B0B0" cx="797.077" cy="376.5" r="2.4"/>
			<circle fill="#B0B0B0" cx="797.077" cy="397.701" r="2.4"/>
			<circle fill="#B0B0B0" cx="796.977" cy="418.9" r="2.4"/>
		</g>
		<path fill="#9B9B9B" d="M798.077,353.2c0.3,0.399,0.5,0.8,0.5,1.399c0,1.301-1,2.399-2.4,2.399c-0.3,0-0.7-0.1-1-0.199
			c0.4,0.601,1.102,1,1.9,1c1.3,0,2.398-1,2.398-2.399C799.477,354.4,798.877,353.5,798.077,353.2z"/>
		<path fill="#9B9B9B" d="M798.077,374.301c0.3,0.399,0.5,0.8,0.5,1.399c0,1.3-1,2.399-2.4,2.399c-0.3,0-0.7-0.101-1-0.199
			c0.4,0.6,1.102,1,1.9,1c1.3,0,2.398-1,2.398-2.4C799.477,375.5,798.877,374.801,798.077,374.301z"/>
		<path fill="#9B9B9B" d="M797.977,395.601c0.302,0.399,0.5,0.801,0.5,1.399c0,1.301-1,2.4-2.398,2.4c-0.3,0-0.7-0.101-1-0.2
			c0.398,0.601,1.1,1,1.898,1c1.302,0,2.4-1,2.4-2.399C799.377,396.7,798.877,395.9,797.977,395.601z"/>
		<path fill="#9B9B9B" d="M797.977,416.7c0.302,0.399,0.5,0.8,0.5,1.399c0,1.301-1,2.399-2.398,2.399c-0.3,0-0.7-0.1-1-0.199
			c0.398,0.601,1.1,1,1.898,1c1.302,0,2.4-1,2.4-2.399C799.377,417.9,798.877,417.101,797.977,416.7z"/>
	</g>
</g>
<g opacity="0.5">
	<path fill="#D3D3D3" d="M811.077,344.2h-26.5c-1.3,0-2.2-1-2.2-2.2l0,0h30.9l0,0C813.377,343.2,812.377,344.2,811.077,344.2z"/>
	<g>
		<path fill="#C4C4C4" d="M802.577,342.801h-3.101c-1.1,0-2-0.899-2-2v-19.199c0-1.102,0.9-2,2-2h3.102c1.1,0,2,0.898,2,2v19.199
			C804.677,341.9,803.677,342.801,802.577,342.801z"/>
		<rect x="798.977" y="319.5" fill="#EFEFEF" width="4.2" height="23.301"/>
		<line fill="none" stroke="#E8E8E8" stroke-miterlimit="10" x1="799.977" y1="319.5" x2="799.977" y2="342.801"/>
		<line fill="none" stroke="#E8E8E8" stroke-miterlimit="10" x1="801.077" y1="319.5" x2="801.077" y2="342.801"/>
		<line fill="none" stroke="#E8E8E8" stroke-miterlimit="10" x1="802.077" y1="319.5" x2="802.077" y2="342.801"/>
	</g>
	<g>
		<path fill="#CFCFCF" d="M809.777,342.801h-3.101c-1.1,0-2-0.899-2-2v-19.199c0-1.102,0.9-2,2-2h3.102c1.1,0,2,0.898,2,2v19.199
			C811.777,341.9,810.877,342.801,809.777,342.801z"/>
		<path fill="#C2C2C2" d="M810.277,322.4h-4.2c-0.3,0-0.5-0.2-0.5-0.5l0,0c0-0.601,0.6-1.2,1.2-1.2h2.698c0.602,0,1.2,0.601,1.2,1.2
			l0,0C810.877,322.102,810.577,322.4,810.277,322.4z"/>
		<rect x="804.677" y="323.2" fill="#C2C2C2" width="7.2" height="0.5"/>
		<rect x="804.677" y="324.102" fill="#C2C2C2" width="7.2" height="1.699"/>
		<ellipse fill="#C2C2C2" cx="807.977" cy="334.101" rx="1.802" ry="6.7"/>
	</g>
	<g>
		<path fill="#CFCFCF" d="M793.377,320l2.7,1.301c1,0.5,1.5,1.699,0.898,2.699l-8.398,17.2c-0.5,1-1.7,1.5-2.7,0.899l-2.7-1.3
			c-1-0.5-1.5-1.7-0.898-2.7l8.398-17.199C791.177,319.9,792.377,319.5,793.377,320z"/>
		<path fill="#C2C2C2" d="M783.877,338l3.7,1.801c0.3,0.101,0.3,0.399,0.2,0.601l0,0c-0.302,0.6-1,0.8-1.602,0.6l-2.398-1.199
			c-0.602-0.301-0.802-1-0.602-1.601l0,0C783.377,338,783.577,337.9,783.877,338z"/>
		
			<rect x="785.924" y="334.418" transform="matrix(0.4402 -0.8979 0.8979 0.4402 136.6207 895.1584)" fill="#C2C2C2" width="0.499" height="7.2"/>
		
			<rect x="786.091" y="332.9" transform="matrix(0.4405 -0.8977 0.8977 0.4405 138.1755 894.7228)" fill="#C2C2C2" width="1.7" height="7.2"/>
		
			<ellipse transform="matrix(-0.4399 0.898 -0.898 -0.4399 1434.1401 -237.3993)" fill="#C2C2C2" cx="791.098" cy="328.504" rx="6.701" ry="1.8"/>
	</g>
</g>
<g>
	<path fill="#4E4F4F" d="M285.9,384.601h-49.3c-2.3,0-4.199-1.899-4.199-4.199l0,0c0-2.301,1.899-4.2,4.199-4.2h49.3
		c2.3,0,4.199,1.899,4.199,4.2l0,0C290,382.7,288.2,384.601,285.9,384.601z"/>
	<g>
		<rect x="255.3" y="423.801" fill="#4E4F4F" width="34" height="4.199"/>
		<ellipse fill="#4E4F4F" cx="255.094" cy="427.798" rx="4" ry="4"/>
		<rect x="269.9" y="381.9" fill="#4E4F4F" width="4.199" height="43.6"/>
		<ellipse fill="#4E4F4F" cx="289.093" cy="427.798" rx="4" ry="4"/>
	</g>
	<path fill="#4E4F4F" d="M298.8,384.601h-46.5c-3.2,0-5.5-3.101-4.6-6.199l22.2-76.601c0.6-2.101,2.5-3.5,4.6-3.5H321
		c3.2,0,5.5,3.1,4.6,6.199l-22.2,76.601C302.7,383.2,300.9,384.601,298.8,384.601z"/>
	<path fill="#F794BA" d="M292.4,384.601h-40.5c-3.2,0-5.5-3.101-4.601-6.199l22.2-76.601c0.6-2.101,2.5-3.5,4.6-3.5h40.5
		c3.2,0,5.5,3.1,4.601,6.199L297,381.101C296.3,383.2,294.5,384.601,292.4,384.601z"/>
	<path fill="#4E4F4F" d="M298.8,384.601h-49.3c-2.3,0-4.2-1.899-4.2-4.199l0,0c0-2.301,1.9-4.2,4.2-4.2h49.3
		c2.3,0,4.2,1.899,4.2,4.2l0,0C302.9,382.7,301.1,384.601,298.8,384.601z"/>
	<polygon fill="#E8A989" points="231.2,333.5 200.4,339.4 201.6,347.2 240.2,348.601 249,332 	"/>
	<path fill="#E8A989" d="M231,314.4l-4.3,22c0,0,15.7,11.199,15.399,10.3c-0.3-0.899,3.301-32.2,3.301-32.2L231,314.4L231,314.4z"/>
	<path fill="#F9D76B" d="M245.4,294c0,0-10.301-1.398-14.5,10.4c-4.301,11.8-4.5,13.8-4.5,13.8l16.399,2.399L245.4,294z"/>
	
		<line fill="none" stroke="#DF9380" stroke-width="0.75" stroke-linecap="round" stroke-linejoin="round" stroke-miterlimit="10" x1="227.7" y1="334.301" x2="232.2" y2="334.301"/>
	<polygon fill="#F9D76B" points="240.2,307.4 238.2,349.7 284.3,349.7 276.6,301 259.4,291.5 245.4,294 	"/>
	<line fill="none" stroke="#EAC057" stroke-miterlimit="10" x1="238" y1="340.7" x2="240.6" y2="307.102"/>
	<path fill="#F9D76B" d="M259.4,291.5c0,0,13.399-6.3,18.8,0c5.4,6.301,10.9,19.5,10.9,19.5l-17.8,5.601L259.4,291.5z"/>
	<polyline fill="none" stroke="#EAC057" stroke-miterlimit="10" points="271.4,316.7 268.3,317.801 263.4,305.602 	"/>
	<polygon fill="#F1BB9D" points="271.4,316.7 281.9,340.301 296,328 289.2,311 	"/>
	<path fill="#F1BB9D" d="M280.3,336.301l-33.3,7.101l1.3,6.3l39,1c0,0,18.9-4.2,8.601-22.7L280.3,336.301z"/>
	<path fill="#F1BB9D" d="M247.1,343.4c0,0-16.3-6.4-20.699,3.399l0.3,3.899l26.1,1.2L247.1,343.4z"/>
	
		<line fill="none" stroke="#DF9380" stroke-width="0.75" stroke-linecap="round" stroke-linejoin="round" stroke-miterlimit="10" x1="280.3" y1="336.301" x2="288.2" y2="335.2"/>
	<g>
		<g>
			<path fill="#F1BB9D" d="M258.1,280.5l1.7,9.2c0.8,4.399-2.2,8.7-6.7,9.3h-0.2c-4.2,0.602-8.2-2.199-9-6.398l-2-10.701l14.1-6.399
				L258.1,280.5z"/>
			<path fill="#DF9380" d="M244.1,293.4c0,0,13.4-0.5,8.801-17.9l-3.9,3.4l-5.9,10.1L244.1,293.4z"/>
		</g>
		<ellipse fill="#DF9380" cx="231.703" cy="275.8" rx="3.9" ry="3.9"/>
		<path fill="#F1BB9D" d="M242.5,290l1.7-0.1c6-0.5,10.5-5.801,10-11.801l-1.2-13.8c-0.1-1.601-1.5-2.7-3.1-2.601L234.3,263
			c-2.8,0.2-4.899,2.7-4.6,5.5l1,11.602C231.2,286,236.5,290.5,242.5,290z"/>
		<g>
			<ellipse fill="#171E21" cx="241.411" cy="273.404" rx="0.9" ry="0.9"/>
			<ellipse fill="#171E21" cx="233.192" cy="274.1" rx="0.9" ry="0.9"/>
			
				<path fill="none" stroke="#DF9380" stroke-width="0.75" stroke-linecap="round" stroke-linejoin="round" stroke-miterlimit="10" d="
				M236.1,274.102l0.1,3.898c0,0,0.3,1.4,2.3,0.7"/>
			<path fill="#171E21" d="M243.7,270.4c-0.101,0-0.101,0-0.2,0l-4.3,0.199c-0.5,0-0.9-0.3-0.9-0.8s0.3-0.899,0.8-0.899l4.301-0.2
				c0.5,0,0.899,0.3,0.899,0.8S244.1,270.301,243.7,270.4z"/>
			<path fill="#171E21" d="M234,271.102c-0.1,0-0.1,0-0.2,0l-2.6,0.1c-0.5,0-0.9-0.301-0.9-0.801s0.3-0.899,0.8-0.899l2.601-0.101
				c0.5,0,0.899,0.301,0.899,0.801C234.6,270.602,234.3,271,234,271.102z"/>
		</g>
		<g>
			<g>
				
					<path fill="none" stroke="#171E21" stroke-width="1.2975" stroke-linecap="round" stroke-linejoin="round" stroke-miterlimit="10" d="
					M256.1,255.102c0,0,1,2.398-1,4.6"/>
				
					<path fill="none" stroke="#171E21" stroke-width="1.2975" stroke-linecap="round" stroke-linejoin="round" stroke-miterlimit="10" d="
					M258.8,258.801c0,0-2.8-0.199-2.6,1.1"/>
			</g>
			<path fill="#171E21" d="M256,258.602c-2.6-7.102-8.5-6.4-10.1-6.201c-1.601,0.201-6.601,3-8.9,1.9c-2.3-1.101-4.1-2.5-7-1.699
				c-3.7,1.1-8.2,7.898-3.5,12.6c4,3.9,16.4,1.601,21.2,0.5c0.2,1.699,0.899,4.3,4,4.101l1.3,2.899c0.3,5.3,5,7.699,5,7.699
				C265.5,260.7,256,258.602,256,258.602z"/>
		</g>
		<ellipse fill="#F1BB9D" cx="255.003" cy="273.2" rx="3.9" ry="3.9"/>
		<path fill="#171E21" d="M248.9,263.2l1.3,14.5c0.1,1.3-0.4,2.7-1.4,3.5c-0.7,0.5-1.2,1.2-2.399,1c-3.5-0.399-1.9-2.7-9-2.101
			C231,280.7,231.6,284,231.6,284s1.5,6.801,10.301,6.801c8.8,0,13-5.801,11.699-13.199l-1.399-15.301L248.9,263.2z"/>
	</g>
	<g>
		<path fill="#DCDBDD" d="M246.2,350.5h-32.8v-3.699h32.8c1,0,1.899,0.8,1.899,1.899l0,0C248,349.7,247.2,350.5,246.2,350.5z"/>
		<g>
			<path fill="#DCDBDD" d="M217.7,350.5h-43.5c-2.5,0-4.7-1.699-5.4-4.1l-8.5-30.5c-0.8-2.7,1.3-5.4,4.101-5.4h40
				c1.699,0,3.1,1.101,3.6,2.7L217.7,350.5z"/>
			<circle fill="#FFFFFF" cx="187.1" cy="332.201" r="4.1"/>
		</g>
	</g>
	<g>
		<rect x="128.8" y="350.7" fill="#E2E2E2" width="33.2" height="81"/>
		<rect x="162" y="350.7" fill="#A9A9A9" width="36.4" height="81"/>
		<rect x="306.2" y="351.601" fill="#A9A9A9" width="6.2" height="80"/>
		<rect x="349" y="352" fill="#A9A9A9" width="6.2" height="80"/>
		<rect x="312.4" y="349.9" fill="#A9A9A9" width="46.699" height="4.1"/>
		<rect x="113.4" y="349.9" fill="#C6C6C6" width="198.899" height="4.1"/>
	</g>
	<polygon fill="#F1BB9D" points="230.4,406.5 238.3,424.2 257.2,424.2 250.8,406.5 	"/>
	<polygon fill="#F1BB9D" points="211.3,406.5 201.9,424.2 220.7,424.2 228.7,406.5 	"/>
	<path fill="#484949" d="M217.7,354c0,0-10.3,5.101-2.4,21.9l17.101,42.8H256.1l-21.3-64.8h-17.1V354z"/>
	<path fill="#565656" d="M292.1,354c0,0,7,18.2-14.5,22.5h-34.9l-18.9,42.301h-21.9L224.8,354H292.1L292.1,354z"/>
	<path fill="#06122F" d="M257.2,424.2l3.1,7.5H225c0,0,1.4-7.5,13.3-7.5H257.2z"/>
	<path fill="#06122F" d="M220.7,424.2l-3,7.5H187c0,0,1.4-7.5,13.3-7.5H220.7z"/>
	<polygon fill="#984F3F" points="115.7,285.4 118.3,306.4 130.9,341.5 125.3,346.101 102,307.7 95,283.7 	"/>
	<polygon fill="#83F2D3" points="112.1,264.9 119.5,291.102 95.9,299.2 105.3,276.5 	"/>
	<path fill="#984F3F" d="M130.9,341.5l14.199,4.2c1.4,0.399,2.601,0.899,3,2.3c0.2,0.7,0.101,1.4-0.199,2l0,0
		c-0.601,1.2-1.9,1.9-3.2,1.601L132.8,350l1.8,3.101c0.4,0.5,0.4,1.301,0,1.801l0,0c-0.5,0.699-1.399,0.8-2.1,0.399l-4.2-2.801
		c-1.1-0.8-1.899-1.899-2.2-3.199l-0.7-3.101l1.699-4.7H130.9L130.9,341.5z"/>
	<path fill="#8AF9DC" d="M91.2,253.2c0,0-18-7.399-28.8,9.5C51.6,279.6,43,317.4,43,317.4l42.8,6.5l23.7-48
		c2.4-4.4,4.6-9.9,1.1-13.5c-1.6-1.601-3.8-3.2-7-4.4C91.2,253.2,91.2,253.2,91.2,253.2z"/>
	<path fill="#AA614E" d="M97.4,296.301L80.6,259.7l-15,19.101l17.4,27.5c1.6,2.5,4.3,4,7.2,4.101l36.6,0.8l5.2-6L97.4,296.301z"/>
	<path fill="#AA614E" d="M131.9,305.102l15.699,2l6.301,2.6c0.699,0.3,1,1.101,0.8,1.8l0,0c-0.3,0.7-1.101,1.101-1.8,0.9l-6.2-2.101
		l-4.5-0.699l1.8,1.898c0.9,0.9,1.4,2,1.7,3.2l0.2,1c0.3,1.5-0.7,2.899-2.101,3.2l-3.2,0.699c-1.399,0.301-2.699-0.5-3.199-1.8
		l-0.801-2.399l-2.899-1.7c0,0-4.3,1-8-2.5c-3.101-3,0.6-3.601,1-3.7C127.1,307.301,131.9,305.102,131.9,305.102z"/>
	<polygon fill="#8AF9DC" points="82.5,257.102 95.7,283.7 71.3,298.7 61.2,272.5 	"/>
	<polyline fill="#8AF9DC" points="65.7,285.4 71.3,298.7 93.8,284.7 82.7,261.5 	"/>
	<g>
		<g>
			<path fill="#AA614E" d="M94.3,239.301l-6.7,12.1c-2.3,4.101-0.7,9.301,3.5,11.5l0,0c4,2,8.8,0.5,11-3.399l4.7-8.601
				c0.4-0.699,0.3-1.5-0.2-2.1l-8.9-9.9c-0.4-0.399-1-0.699-1.6-0.6h-0.4C95.1,238.5,94.6,238.801,94.3,239.301z"/>
			<path fill="#984F3F" d="M97.7,238.9c0,0-9.5,15,4.4,20.6l2.9-5.699L97.7,238.9z"/>
		</g>
		<ellipse fill="#984F3F" cx="118.219" cy="243.167" rx="4" ry="4"/>
		<path fill="#AA614E" d="M111.6,220.602c-18.2-4.4-17.4,14-17.4,14l2.6,0.199l-1.6,6.699c-1.5,6.4,2.5,12.801,8.9,14.301l0.4,0.1
			c6.4,1.5,12.8-2.5,14.3-8.899l2.3-10.101l0,0C121.1,236.9,126,224,111.6,220.602z"/>
		<g>
			<ellipse fill="#171E21" cx="108.689" cy="239.34" rx="1" ry="1"/>
			<ellipse fill="#171E21" cx="116.799" cy="241.232" rx="1" ry="1"/>
			<path fill="#984F3F" d="M111.8,245.9c0.4,0.1,0.7,0,1-0.101c0.7-0.2,0.9-0.801,0.9-0.899l0.7-4c0-0.2-0.101-0.4-0.301-0.4
				c-0.199,0-0.399,0.102-0.399,0.301l-0.7,4l0,0c0,0-0.1,0.301-0.4,0.399c-0.3,0.101-0.8,0-1.399-0.3c-0.2-0.101-0.4,0-0.5,0.199
				c-0.1,0.2,0,0.399,0.2,0.5C111.1,245.7,111.5,245.801,111.8,245.9z"/>
			<path fill="#171E21" d="M106.9,236c0.1,0,0.1,0,0.2,0.102l4.3,0.799c0.5,0.101,0.9-0.199,1-0.699s-0.2-0.899-0.7-1l-4.3-0.801
				c-0.5-0.1-0.9,0.201-1,0.701C106.3,235.4,106.5,235.801,106.9,236z"/>
			<path fill="#171E21" d="M116.7,238.102c0.1,0,0.1,0,0.2,0.1l2.6,0.5c0.5,0.101,0.9-0.2,1-0.7s-0.2-0.899-0.7-1l-2.6-0.5
				c-0.5-0.101-0.9,0.2-1,0.7C116,237.5,116.3,237.9,116.7,238.102z"/>
		</g>
		<g>
			<path fill="#171E21" d="M101,234.9l-1.8,7.5c-0.3,1.3,0,2.8,0.9,3.699c0.6,0.601,1,1.399,2.3,1.399c3.6,0.101,2.4-2.5,9.4-0.8
				c6.5,1.601,5.4,4.8,5.4,4.8s-2.5,6.7-11.5,5.301c-9-1.301-12.4-7.801-10-15.101l1.4-7.6L101,234.9z"/>
			<path fill="#171E21" d="M101,234.9c0,0,2.6-5.7-6-6.5c0,0-1,3.899-0.8,6.199l4,1.101L101,234.9z"/>
		</g>
		<ellipse fill="#AA614E" cx="92.733" cy="236.132" rx="4.5" ry="4.5"/>
	</g>
	<rect x="88.6" y="415.9" fill="#AA614E" width="17.2" height="8.399"/>
	<path fill="#E27AFC" d="M85.8,323.9l21.6,37.3c2.2,4.601,3.4,9.7,3.4,14.8l-2.1,43.2H87.4l1.3-46.601l-26.8-44l-0.7-8.6L85.8,323.9
		z"/>
	<line fill="none" x1="88" y1="411.101" x2="109.2" y2="411.101"/>
	<path fill="#06122F" d="M88.6,424.2l0.2,7.5h30.7c0,0-1.4-7.5-13.3-7.5H88.6z"/>
	<polygon fill="#AA614E" points="53.1,415.9 35.9,415.9 32.7,424.2 49.9,424.2 	"/>
	<path fill="#E27AFC" d="M43,317.4l4.5,55.699L32.6,419.2h22.1L69.3,378c0.6-1.699,1-3.5,1.2-5.399l4.1-43.899l4.3-6L43,317.4z"/>
	<polyline fill="#D95EF7" points="73,346.101 73.3,342.801 80.7,335.2 	"/>
	<line fill="none" x1="35.2" y1="411.101" x2="57.5" y2="411.101"/>
	<path fill="#06122F" d="M32.7,424.2l-2.7,7.5h33.6c0,0-1.4-7.5-13.3-7.5H32.7z"/>
	<path fill="#D95EF7" d="M43,316.4c0,0-5.3,12.8,0.8,29.699c6.1,16.9,15.3,1.4,15.3,1.4L43,316.4z"/>
	<g>
		<path fill="#F794BA" d="M164.6,222.9h-44.3c-2.5,0-4.399-2-4.399-4.4v-15.1c0-2.5,2-4.4,4.399-4.4h44.3c2.5,0,4.4,2,4.4,4.4v15.1
			C169,220.9,167,222.9,164.6,222.9z"/>
		<path fill="#F794BA" d="M122.1,219.602v6.899c0,1,1.301,1.5,2,0.8l8.101-7.699H122.1z"/>
	</g>
	
		<line fill="none" stroke="#FFFFFF" stroke-width="1.9437" stroke-linecap="round" stroke-linejoin="round" stroke-miterlimit="10" x1="125" y1="205" x2="159.8" y2="205"/>
	
		<line fill="none" stroke="#FFFFFF" stroke-width="1.9437" stroke-linecap="round" stroke-linejoin="round" stroke-miterlimit="10" x1="125" y1="210.101" x2="137" y2="210.101"/>
	
		<line fill="none" stroke="#FFFFFF" stroke-width="1.9437" stroke-linecap="round" stroke-linejoin="round" stroke-miterlimit="10" x1="125" y1="216.101" x2="150.5" y2="216.101"/>
	<g>
		<g>
			<path fill="#FFFCFF" d="M361.3,185.9V213c0,2.1-1.899,3.8-4.2,3.8H255.3c-2.3,0-4.2-1.7-4.2-3.8v-27.1c0-2.1,1.9-3.8,4.2-3.8H357
				C359.3,182.2,361.3,183.9,361.3,185.9z"/>
			<path fill="#F2F2F2" d="M354.1,185.9V213c0,2.1-1.899,3.8-4.199,3.8H248.2c-2.3,0-4.2-1.7-4.2-3.8v-27.1c0-2.1,1.9-3.8,4.2-3.8
				h101.7C352.2,182.2,354.1,183.9,354.1,185.9z"/>
			<rect x="255.2" y="212.8" fill="#DDDDDD" width="87.6" height="4.101"/>
			<g>
				<rect x="248.3" y="207.9" fill="#DDDDDD" width="101.5" height="1"/>
				<rect x="248.3" y="187.5" fill="#DDDDDD" width="101.5" height="1"/>
			</g>
			<g>
				<ellipse fill="#F9D76B" cx="348.6" cy="192.9" rx="1.101" ry="1"/>
				<ellipse fill="#F9D76B" cx="345.6" cy="192.9" rx="0.9" ry="0.8"/>
			</g>
			<rect x="338.5" y="189.601" fill="#D0D1D3" width="11.3" height="0.6"/>
		</g>
	</g>
</g>
</svg>
